<?xml version="1.0" encoding="utf-8"?>
<!-- Generator: Adobe Illustrator 27.5.0, SVG Export Plug-In . SVG Version: 6.00 Build 0)  -->
<svg version="1.1" id="Capa_1" xmlns="http://www.w3.org/2000/svg" xmlns:xlink="http://www.w3.org/1999/xlink" x="0px" y="0px"
	 viewBox="0 0 80 80" style="enable-background:new 0 0 80 80;" xml:space="preserve">
<style type="text/css">
	.st0{fill:none;stroke:#1D1D1B;stroke-miterlimit:10;}
	.st1{fill:#FFFFFF;}
	.st2{fill:#A9C810;}
	.st3{fill:none;stroke:#010101;stroke-width:2;stroke-miterlimit:10;}
	.st4{fill:none;stroke:#010101;stroke-width:5;stroke-miterlimit:10;}
	.st5{fill:#D8DDC1;}
</style>
<line class="st0" x1="-2556" y1="-1403.97" x2="-2556" y2="-1152.74"/>
<line class="st0" x1="-2960.69" y1="-1139.2" x2="-2569.89" y2="-1139.2"/>
<g>
	<path d="M-2766.45-1125.66v1.54l-7.53,15.75h-2.42l7.5-15.3v-0.05h-8.46v-1.94H-2766.45z"/>
	<path d="M-2762.19-1121.24l1.84,2.77c0.48,0.72,0.88,1.38,1.3,2.1h0.08c0.43-0.77,0.85-1.44,1.28-2.13l1.81-2.74h2.53l-4.39,6.23
		l4.52,6.65h-2.66l-1.89-2.9c-0.5-0.75-0.93-1.46-1.38-2.24h-0.05c-0.43,0.77-0.88,1.46-1.36,2.24l-1.86,2.9h-2.58l4.58-6.57
		l-4.36-6.31H-2762.19z"/>
</g>
<g>
	<path d="M-2534.08-1279.48v-4.71h-8.04v-1.54l7.72-11.04h2.53v10.75h2.42v1.84h-2.42v4.71H-2534.08z M-2534.08-1286.02v-5.77
		c0-0.91,0.03-1.81,0.08-2.71h-0.08c-0.53,1.01-0.96,1.76-1.44,2.55l-4.23,5.88v0.05H-2534.08z"/>
	<path d="M-2528.43-1276.2c0.58-1.57,1.3-4.42,1.6-6.36l2.61-0.27c-0.61,2.26-1.78,5.21-2.53,6.47L-2528.43-1276.2z"/>
	<path d="M-2511.83-1294.8h-6.6l-0.67,4.44c0.4-0.05,0.77-0.11,1.41-0.11c1.33,0,2.66,0.29,3.73,0.93c1.36,0.77,2.47,2.26,2.47,4.44
		c0,3.38-2.69,5.91-6.44,5.91c-1.89,0-3.49-0.53-4.31-1.06l0.58-1.78c0.72,0.43,2.13,0.96,3.7,0.96c2.21,0,4.1-1.44,4.1-3.75
		c-0.03-2.23-1.52-3.83-4.98-3.83c-0.98,0-1.76,0.11-2.4,0.19l1.12-8.3h8.28V-1294.8z"/>
	<path d="M-2501.02-1292.35l1.84,2.77c0.48,0.72,0.88,1.38,1.3,2.1h0.08c0.43-0.77,0.85-1.44,1.28-2.13l1.81-2.74h2.53l-4.39,6.23
		l4.52,6.65h-2.66l-1.89-2.9c-0.5-0.75-0.93-1.46-1.38-2.24h-0.05c-0.43,0.77-0.88,1.46-1.36,2.24l-1.86,2.9h-2.58l4.58-6.57
		l-4.36-6.31H-2501.02z"/>
</g>
<g>
	<ellipse cx="-2826.86" cy="-1275.3" rx="21.53" ry="120.47"/>
	<ellipse cx="-2871.52" cy="-1275.3" rx="13.52" ry="104.6"/>
	<ellipse cx="-2905.55" cy="-1275.3" rx="10.41" ry="86.87"/>
	<ellipse cx="-2932.74" cy="-1275.3" rx="7.72" ry="72.13"/>
	<ellipse cx="-2955.23" cy="-1275.3" rx="5.46" ry="50.8"/>
	<g>
		<path d="M-2692.88-1350.35c4.14-0.68,8.2-0.93,12.21-0.79c15.3,0.54,30.05,6.84,46.61,17.8c0.8,0.53,1.58,1.1,2.35,1.67
			c6.41,4.64,14.26,7.41,22.77,7.41c6.58,0,12.77-1.64,18.21-4.53c12.39-6.58,20.84-19.68,20.84-34.76
			c0-21.7-17.49-39.29-39.05-39.29c-8.46,0-16.27,2.73-22.66,7.33c-0.85,0.61-1.69,1.24-2.57,1.81
			c-30.53,19.76-69.82,19.76-100.35,0c-0.88-0.57-1.72-1.2-2.57-1.81c-6.39-4.6-14.2-7.33-22.66-7.33
			c-21.57,0-39.05,17.59-39.05,39.29c0,8.65,2.81,16.62,7.52,23.11c25.99,37.73,25.98,70.8,0,125.3
			c-3.45,7.24-7.52,14.46-7.52,23.12c0,21.69,17.48,39.28,39.05,39.28s39.06-17.59,39.06-39.28c0-8.66-3.78-16.03-7.53-23.12
			c-16.95-32.06-17.9-35.73-19.23-55.06c-0.98-14.27,10.41-26.48,24.71-26.45c31.46,0.07,58.27,18.86,78.62,44.56
			c9.09,10.67,16.29,17.28,28.71,17.28c18,0,32.59-14.68,32.59-32.78c0-9.39-3.94-18.25-10.23-24.4c-5.84-5.72-13.72-9.1-22.36-8.38
			c-4.51,0.37-8.27,1.08-12.31,2.45c-0.86,0.29-1.6,0.66-2.55,0.98c-20.18,6.78-40.17,7.7-57.99,2.11
			c-27.27-8.66-45.32-22.38-43.48-35.06C-2730.19-1340.6-2714.84-1347.98-2692.88-1350.35z"/>
	</g>
</g>
<g>
	<ellipse class="st1" cx="-2340.78" cy="-2078.67" rx="21.53" ry="120.47"/>
	<ellipse class="st1" cx="-2385.43" cy="-2078.67" rx="13.52" ry="104.6"/>
	<ellipse class="st1" cx="-2419.46" cy="-2078.67" rx="10.41" ry="86.87"/>
	<ellipse class="st1" cx="-2446.65" cy="-2078.67" rx="7.72" ry="72.13"/>
	<ellipse class="st1" cx="-2469.15" cy="-2078.67" rx="5.46" ry="50.8"/>
	<g>
		<path class="st1" d="M-2206.79-2153.72c4.14-0.68,8.2-0.93,12.21-0.79c15.3,0.54,30.05,6.84,46.61,17.8
			c0.8,0.53,1.58,1.1,2.35,1.67c6.41,4.64,14.26,7.41,22.77,7.41c6.58,0,12.77-1.64,18.21-4.53c12.39-6.58,20.84-19.68,20.84-34.76
			c0-21.7-17.49-39.29-39.05-39.29c-8.46,0-16.27,2.73-22.66,7.33c-0.85,0.61-1.69,1.24-2.57,1.81
			c-30.53,19.76-69.82,19.76-100.35,0c-0.88-0.57-1.72-1.2-2.57-1.81c-6.39-4.6-14.2-7.33-22.66-7.33
			c-21.57,0-39.05,17.59-39.05,39.29c0,8.65,2.81,16.62,7.52,23.11c25.99,37.73,25.98,70.8,0,125.3
			c-3.45,7.24-7.52,14.46-7.52,23.12c0,21.69,17.48,39.28,39.05,39.28s39.06-17.59,39.06-39.28c0-8.66-3.78-16.03-7.53-23.12
			c-16.95-32.06-17.9-35.73-19.23-55.06c-0.98-14.27,10.41-26.48,24.71-26.45c31.46,0.07,58.27,18.86,78.62,44.56
			c9.09,10.67,16.29,17.28,28.71,17.28c18,0,32.59-14.68,32.59-32.78c0-9.39-3.94-18.25-10.23-24.4c-5.84-5.72-13.72-9.1-22.36-8.38
			c-4.51,0.37-8.27,1.08-12.31,2.45c-0.86,0.29-1.6,0.66-2.55,0.98c-20.18,6.78-40.17,7.7-57.99,2.11
			c-27.27-8.66-45.32-22.38-43.48-35.06C-2244.1-2143.97-2228.75-2151.35-2206.79-2153.72z"/>
	</g>
</g>
<g>
	<ellipse class="st1" cx="211.64" cy="-956.87" rx="30.4" ry="170.11"/>
	<ellipse class="st1" cx="148.59" cy="-956.87" rx="19.09" ry="147.7"/>
	<ellipse class="st1" cx="100.54" cy="-956.87" rx="14.7" ry="122.65"/>
	<ellipse class="st1" cx="62.15" cy="-956.87" rx="10.9" ry="101.85"/>
	<ellipse class="st1" cx="30.38" cy="-956.87" rx="7.7" ry="71.72"/>
	<g>
		<path class="st1" d="M400.83-1062.83c5.85-0.96,11.58-1.31,17.24-1.12c21.6,0.76,42.43,9.66,65.81,25.13
			c1.13,0.75,2.23,1.55,3.32,2.36c9.05,6.55,20.13,10.46,32.15,10.46c9.29,0,18.03-2.32,25.71-6.4
			c17.49-9.29,29.43-27.79,29.43-49.08c0-30.64-24.7-55.48-55.14-55.48c-11.95,0-22.97,3.85-32,10.35c-1.2,0.86-2.39,1.75-3.63,2.56
			c-43.11,27.9-98.58,27.9-141.69,0c-1.24-0.8-2.43-1.69-3.63-2.56c-9.02-6.49-20.05-10.35-32-10.35
			c-30.46,0-55.14,24.84-55.14,55.48c0,12.21,3.97,23.47,10.62,32.63c36.7,53.27,36.69,99.96,0,176.92
			c-4.87,10.22-10.62,20.42-10.62,32.65c0,30.63,24.68,55.46,55.14,55.46c30.46,0,55.15-24.84,55.15-55.46
			c0-12.23-5.34-22.64-10.63-32.65c-23.94-45.27-25.27-50.45-27.15-77.74c-1.38-20.15,14.7-37.39,34.89-37.35
			c44.42,0.1,82.28,26.63,111.01,62.92c12.83,15.07,23,24.4,40.54,24.4c25.42,0,46.02-20.73,46.02-46.28
			c0-13.26-5.56-25.77-14.44-34.45c-8.25-8.08-19.37-12.85-31.57-11.83c-6.37,0.52-11.68,1.52-17.38,3.46
			c-1.21,0.41-2.26,0.93-3.6,1.38c-28.49,9.57-56.72,10.87-81.88,2.98c-38.5-12.23-63.99-31.6-61.39-49.5
			C348.15-1049.06,369.82-1059.48,400.83-1062.83z"/>
	</g>
</g>
<g>
	<path class="st1" d="M-1636.97-2128.56c0.63,1,1.17,1.79,1.42,2.13c23.69,31.61,60.34,38.67,98.29,25.69c4.13-1.91,8.72-3,13.56-3
		c18,0,32.59,14.68,32.59,32.78c0,18.11-14.59,32.78-32.59,32.78c-12.42,0-23.21-6.99-28.71-17.28
		c-16.98-28.22-47.16-44.49-78.62-44.56c-14.3-0.03-25.68,12.18-24.7,26.45c1.33,19.33,7.74,38.38,19.23,55.06
		c4.71,6.49,7.52,14.46,7.52,23.12c0,21.7-17.48,39.29-39.05,39.29c-21.57,0-39.05-17.59-39.05-39.29c0-8.65,2.81-16.63,7.52-23.12
		c25.99-37.73,25.99-87.57,0-125.3c-4.71-6.49-7.52-14.46-7.52-23.12c0-21.7,17.48-39.29,39.05-39.29c9.02,0,17.3,3.11,23.91,8.27
		c31.15,20.92,71.83,20.92,102.98,0c6.61-5.17,14.89-8.27,23.91-8.27c21.57,0,39.05,17.59,39.05,39.29
		c0,21.7-17.48,39.29-39.05,39.29c-9.02,0-17.3-3.11-23.91-8.27c-29.19-19.61-52.63-24.98-83.02-10.18c-0.6,0.29-5.25,2.42-9.36,4.8
		C-1638.11-2138.62-1639.76-2132.98-1636.97-2128.56z"/>
</g>
<g>
	<ellipse cx="1617.64" cy="-956.87" rx="30.4" ry="170.11"/>
	<ellipse cx="1554.58" cy="-956.87" rx="19.09" ry="147.7"/>
	<ellipse cx="1506.54" cy="-956.87" rx="14.7" ry="122.65"/>
	<ellipse cx="1468.14" cy="-956.87" rx="10.9" ry="101.85"/>
	<ellipse cx="1436.38" cy="-956.87" rx="7.7" ry="71.72"/>
	<g>
		<path d="M1806.82-1062.83c5.85-0.96,11.58-1.31,17.24-1.12c21.6,0.76,42.43,9.66,65.81,25.13c1.13,0.75,2.23,1.55,3.32,2.36
			c9.05,6.55,20.13,10.46,32.15,10.46c9.29,0,18.03-2.32,25.71-6.4c17.49-9.29,29.43-27.79,29.43-49.08
			c0-30.64-24.7-55.48-55.14-55.48c-11.95,0-22.97,3.85-32,10.35c-1.2,0.86-2.39,1.75-3.63,2.56c-43.11,27.9-98.58,27.9-141.69,0
			c-1.24-0.8-2.43-1.69-3.63-2.56c-9.02-6.49-20.05-10.35-32-10.35c-30.46,0-55.14,24.84-55.14,55.48
			c0,12.21,3.97,23.47,10.62,32.63c36.7,53.27,36.69,99.96,0,176.92c-4.87,10.22-10.62,20.42-10.62,32.65
			c0,30.63,24.68,55.46,55.14,55.46c30.46,0,55.15-24.84,55.15-55.46c0-12.23-5.34-22.64-10.63-32.65
			c-23.94-45.27-25.27-50.45-27.15-77.74c-1.38-20.15,14.7-37.39,34.89-37.35c44.42,0.1,82.28,26.63,111.01,62.92
			c12.83,15.07,23,24.4,40.54,24.4c25.42,0,46.02-20.73,46.02-46.28c0-13.26-5.56-25.77-14.44-34.45
			c-8.25-8.08-19.37-12.85-31.57-11.83c-6.37,0.52-11.68,1.52-17.38,3.46c-1.21,0.41-2.26,0.93-3.6,1.38
			c-28.49,9.57-56.72,10.87-81.88,2.98c-38.5-12.23-63.99-31.6-61.39-49.5C1754.14-1049.06,1775.81-1059.48,1806.82-1062.83z"/>
	</g>
</g>
<g>
	<ellipse cx="1703.25" cy="-34.07" rx="20.64" ry="115.5"/>
	<ellipse cx="1660.44" cy="-34.07" rx="12.96" ry="100.28"/>
	<ellipse cx="1627.81" cy="-34.07" rx="9.98" ry="83.28"/>
	<ellipse cx="1601.75" cy="-34.07" rx="7.4" ry="69.15"/>
	<ellipse cx="1580.18" cy="-34.07" rx="5.23" ry="48.7"/>
	<g>
		<path d="M1831.69-106.02c3.97-0.65,7.86-0.89,11.71-0.76c14.67,0.52,28.81,6.56,44.68,17.06c0.77,0.51,1.51,1.05,2.25,1.6
			c6.15,4.45,13.67,7.1,21.83,7.1c6.31,0,12.24-1.57,17.46-4.34c11.88-6.31,19.98-18.87,19.98-33.32c0-20.8-16.77-37.67-37.44-37.67
			c-8.11,0-15.6,2.62-21.72,7.03c-0.81,0.58-1.62,1.19-2.46,1.74c-29.27,18.94-66.94,18.94-96.2,0c-0.84-0.55-1.65-1.15-2.46-1.74
			c-6.13-4.41-13.61-7.03-21.72-7.03c-20.68,0-37.44,16.86-37.44,37.67c0,8.29,2.69,15.93,7.21,22.16
			c24.92,36.17,24.91,67.87,0,120.12c-3.31,6.94-7.21,13.86-7.21,22.16c0,20.79,16.76,37.66,37.44,37.66
			c20.68,0,37.45-16.86,37.45-37.66c0-8.3-3.63-15.37-7.22-22.16c-16.25-30.74-17.16-34.25-18.44-52.78
			c-0.94-13.68,9.98-25.39,23.69-25.36c30.16,0.07,55.86,18.08,75.37,42.72c8.71,10.23,15.62,16.57,27.52,16.57
			c17.26,0,31.24-14.07,31.24-31.43c0-9-3.78-17.5-9.81-23.39c-5.6-5.48-13.15-8.72-21.44-8.03c-4.32,0.35-7.93,1.04-11.8,2.35
			c-0.82,0.28-1.53,0.63-2.44,0.94c-19.35,6.5-38.51,7.38-55.59,2.02c-26.14-8.3-43.45-21.46-41.68-33.61
			C1795.93-96.67,1810.64-103.75,1831.69-106.02z"/>
	</g>
</g>
<g>
	<ellipse class="st1" cx="1073.47" cy="-34.07" rx="20.64" ry="115.5"/>
	<ellipse class="st1" cx="1030.66" cy="-34.07" rx="12.96" ry="100.28"/>
	<ellipse class="st1" cx="998.04" cy="-34.07" rx="9.98" ry="83.28"/>
	<ellipse class="st1" cx="971.97" cy="-34.07" rx="7.4" ry="69.15"/>
	<ellipse class="st1" cx="950.4" cy="-34.07" rx="5.23" ry="48.7"/>
	<g>
		<path class="st1" d="M1201.92-106.02c3.97-0.65,7.86-0.89,11.71-0.76c14.67,0.52,28.81,6.56,44.68,17.06
			c0.77,0.51,1.51,1.05,2.25,1.6c6.15,4.45,13.67,7.1,21.83,7.1c6.31,0,12.24-1.57,17.46-4.34c11.88-6.31,19.98-18.87,19.98-33.32
			c0-20.8-16.77-37.67-37.44-37.67c-8.11,0-15.6,2.62-21.72,7.03c-0.81,0.58-1.62,1.19-2.46,1.74c-29.27,18.94-66.94,18.94-96.2,0
			c-0.84-0.55-1.65-1.15-2.46-1.74c-6.13-4.41-13.61-7.03-21.72-7.03c-20.68,0-37.44,16.86-37.44,37.67
			c0,8.29,2.69,15.93,7.21,22.16c24.92,36.17,24.91,67.87,0,120.12c-3.31,6.94-7.21,13.86-7.21,22.16
			c0,20.79,16.76,37.66,37.44,37.66c20.68,0,37.45-16.86,37.45-37.66c0-8.3-3.63-15.37-7.22-22.16
			c-16.25-30.74-17.16-34.25-18.44-52.78c-0.94-13.68,9.98-25.39,23.69-25.36c30.16,0.07,55.86,18.08,75.37,42.72
			c8.71,10.23,15.62,16.57,27.52,16.57c17.26,0,31.24-14.07,31.24-31.43c0-9-3.78-17.5-9.81-23.39c-5.6-5.48-13.15-8.72-21.44-8.03
			c-4.32,0.35-7.93,1.04-11.8,2.35c-0.82,0.28-1.53,0.63-2.44,0.94c-19.35,6.5-38.51,7.38-55.59,2.02
			c-26.14-8.3-43.45-21.46-41.68-33.61C1166.15-96.67,1180.86-103.75,1201.92-106.02z"/>
	</g>
</g>
<rect x="-3601.26" y="564.82" class="st1" width="1080" height="1080"/>
<circle class="st1" cx="-4464.99" cy="1104.82" r="535.69"/>
<g>
	<ellipse cx="-4551.93" cy="1108.33" rx="30.4" ry="170.11"/>
	<ellipse cx="-4614.98" cy="1108.33" rx="19.09" ry="147.7"/>
	<ellipse cx="-4663.03" cy="1108.33" rx="14.7" ry="122.65"/>
	<ellipse cx="-4701.43" cy="1108.33" rx="10.9" ry="101.85"/>
	<ellipse cx="-4733.19" cy="1108.33" rx="7.7" ry="71.72"/>
	<g>
		<path d="M-4362.75,1002.37c5.85-0.96,11.58-1.31,17.24-1.12c21.6,0.76,42.43,9.66,65.81,25.13c1.13,0.75,2.23,1.55,3.32,2.36
			c9.05,6.55,20.13,10.46,32.15,10.46c9.29,0,18.03-2.32,25.71-6.4c17.49-9.29,29.43-27.79,29.43-49.08
			c0-30.64-24.7-55.48-55.14-55.48c-11.95,0-22.97,3.85-32,10.35c-1.2,0.86-2.39,1.75-3.63,2.56c-43.11,27.9-98.58,27.9-141.69,0
			c-1.24-0.8-2.43-1.69-3.63-2.56c-9.02-6.5-20.05-10.35-32-10.35c-30.46,0-55.14,24.84-55.14,55.48c0,12.21,3.97,23.47,10.62,32.63
			c36.7,53.27,36.69,99.96,0,176.92c-4.87,10.22-10.62,20.42-10.62,32.65c0,30.63,24.68,55.46,55.14,55.46
			c30.46,0,55.15-24.84,55.15-55.46c0-12.23-5.34-22.64-10.63-32.65c-23.94-45.27-25.27-50.45-27.15-77.74
			c-1.38-20.15,14.7-37.39,34.89-37.35c44.42,0.1,82.28,26.63,111.01,62.92c12.83,15.07,23,24.4,40.54,24.4
			c25.42,0,46.02-20.73,46.02-46.28c0-13.26-5.56-25.77-14.44-34.45c-8.25-8.08-19.37-12.85-31.57-11.83
			c-6.37,0.52-11.68,1.52-17.38,3.46c-1.21,0.41-2.26,0.93-3.6,1.38c-28.49,9.57-56.72,10.87-81.88,2.98
			c-38.5-12.23-63.99-31.6-61.39-49.5C-4415.43,1016.13-4393.75,1005.71-4362.75,1002.37z"/>
	</g>
</g>
<g>
	<ellipse cx="-3145.94" cy="1108.33" rx="30.4" ry="170.11"/>
	<ellipse cx="-3208.99" cy="1108.33" rx="19.09" ry="147.7"/>
	<ellipse cx="-3257.04" cy="1108.33" rx="14.7" ry="122.65"/>
	<ellipse cx="-3295.43" cy="1108.33" rx="10.9" ry="101.85"/>
	<ellipse cx="-3327.2" cy="1108.33" rx="7.7" ry="71.72"/>
	<g>
		<path d="M-2956.75,1002.37c5.85-0.96,11.58-1.31,17.24-1.12c21.6,0.76,42.43,9.66,65.81,25.13c1.13,0.75,2.23,1.55,3.32,2.36
			c9.05,6.55,20.14,10.46,32.15,10.46c9.29,0,18.03-2.32,25.71-6.4c17.49-9.29,29.43-27.79,29.43-49.08
			c0-30.64-24.7-55.48-55.14-55.48c-11.95,0-22.97,3.85-32,10.35c-1.2,0.86-2.39,1.75-3.63,2.56c-43.11,27.9-98.58,27.9-141.69,0
			c-1.24-0.8-2.43-1.69-3.63-2.56c-9.02-6.5-20.05-10.35-32-10.35c-30.46,0-55.14,24.84-55.14,55.48c0,12.21,3.97,23.47,10.62,32.63
			c36.7,53.27,36.69,99.96,0,176.92c-4.87,10.22-10.62,20.42-10.62,32.65c0,30.63,24.68,55.46,55.14,55.46s55.15-24.84,55.15-55.46
			c0-12.23-5.34-22.64-10.63-32.65c-23.94-45.27-25.27-50.45-27.15-77.74c-1.38-20.15,14.7-37.39,34.89-37.35
			c44.42,0.1,82.28,26.63,111.01,62.92c12.83,15.07,23,24.4,40.54,24.4c25.42,0,46.02-20.73,46.02-46.28
			c0-13.26-5.56-25.77-14.44-34.45c-8.25-8.08-19.37-12.85-31.57-11.83c-6.37,0.52-11.68,1.52-17.38,3.46
			c-1.21,0.41-2.26,0.93-3.6,1.38c-28.49,9.57-56.72,10.87-81.88,2.98c-38.5-12.23-63.99-31.6-61.39-49.5
			C-3009.43,1016.13-2987.76,1005.71-2956.75,1002.37z"/>
	</g>
</g>
<rect x="-1655.27" y="-906.3" width="1080" height="1080"/>
<circle cx="-2519" cy="-366.3" r="535.69"/>
<g>
	<ellipse class="st1" cx="-2605.94" cy="-362.8" rx="30.4" ry="170.11"/>
	<ellipse class="st1" cx="-2668.99" cy="-362.8" rx="19.09" ry="147.7"/>
	<ellipse class="st1" cx="-2717.04" cy="-362.8" rx="14.7" ry="122.65"/>
	<ellipse class="st1" cx="-2755.43" cy="-362.8" rx="10.9" ry="101.85"/>
	<ellipse class="st1" cx="-2787.2" cy="-362.8" rx="7.7" ry="71.72"/>
	<g>
		<path class="st1" d="M-2416.75-468.76c5.85-0.96,11.58-1.31,17.24-1.12c21.6,0.76,42.43,9.66,65.81,25.13
			c1.13,0.75,2.23,1.55,3.32,2.36c9.05,6.55,20.14,10.46,32.15,10.46c9.29,0,18.03-2.32,25.71-6.4
			c17.49-9.29,29.43-27.79,29.43-49.08c0-30.64-24.7-55.48-55.14-55.48c-11.95,0-22.97,3.85-32,10.35c-1.2,0.86-2.39,1.75-3.63,2.56
			c-43.11,27.9-98.58,27.9-141.69,0c-1.24-0.8-2.43-1.69-3.63-2.56c-9.02-6.5-20.05-10.35-32-10.35
			c-30.46,0-55.14,24.84-55.14,55.48c0,12.21,3.97,23.47,10.62,32.63c36.7,53.27,36.69,99.96,0,176.92
			c-4.87,10.22-10.62,20.42-10.62,32.65c0,30.63,24.68,55.46,55.14,55.46s55.15-24.84,55.15-55.46c0-12.23-5.34-22.64-10.63-32.65
			c-23.94-45.27-25.27-50.45-27.15-77.74c-1.38-20.15,14.7-37.39,34.89-37.35c44.42,0.1,82.28,26.63,111.01,62.92
			c12.83,15.07,23,24.4,40.54,24.4c25.42,0,46.02-20.73,46.02-46.28c0-13.26-5.56-25.77-14.44-34.45
			c-8.25-8.08-19.37-12.85-31.57-11.83c-6.37,0.52-11.68,1.52-17.38,3.46c-1.21,0.41-2.26,0.93-3.6,1.38
			c-28.49,9.57-56.72,10.87-81.88,2.98c-38.5-12.23-63.99-31.6-61.39-49.5C-2469.43-454.99-2447.76-465.41-2416.75-468.76z"/>
	</g>
</g>
<g>
	<ellipse class="st1" cx="-1199.94" cy="-362.8" rx="30.4" ry="170.11"/>
	<ellipse class="st1" cx="-1262.99" cy="-362.8" rx="19.09" ry="147.7"/>
	<ellipse class="st1" cx="-1311.04" cy="-362.8" rx="14.7" ry="122.65"/>
	<ellipse class="st1" cx="-1349.44" cy="-362.8" rx="10.9" ry="101.85"/>
	<ellipse class="st1" cx="-1381.2" cy="-362.8" rx="7.7" ry="71.72"/>
	<g>
		<path class="st1" d="M-1010.76-468.76c5.85-0.96,11.58-1.31,17.24-1.12c21.6,0.76,42.43,9.66,65.81,25.13
			c1.13,0.75,2.23,1.55,3.32,2.36c9.05,6.55,20.13,10.46,32.15,10.46c9.29,0,18.03-2.32,25.71-6.4
			c17.49-9.29,29.43-27.79,29.43-49.08c0-30.64-24.7-55.48-55.14-55.48c-11.95,0-22.97,3.85-32,10.35c-1.2,0.86-2.39,1.75-3.63,2.56
			c-43.11,27.9-98.58,27.9-141.69,0c-1.24-0.8-2.43-1.69-3.63-2.56c-9.02-6.5-20.05-10.35-32-10.35
			c-30.46,0-55.14,24.84-55.14,55.48c0,12.21,3.97,23.47,10.62,32.63c36.7,53.27,36.69,99.96,0,176.92
			c-4.87,10.22-10.62,20.42-10.62,32.65c0,30.63,24.68,55.46,55.14,55.46c30.46,0,55.15-24.84,55.15-55.46
			c0-12.23-5.34-22.64-10.63-32.65c-23.94-45.27-25.27-50.45-27.15-77.74c-1.38-20.15,14.7-37.39,34.89-37.35
			c44.42,0.1,82.28,26.63,111.01,62.92c12.83,15.07,23,24.4,40.54,24.4c25.42,0,46.02-20.73,46.02-46.28
			c0-13.26-5.56-25.77-14.44-34.45c-8.25-8.08-19.37-12.85-31.57-11.83c-6.37,0.52-11.68,1.52-17.38,3.46
			c-1.21,0.41-2.26,0.93-3.6,1.38c-28.49,9.57-56.72,10.87-81.88,2.98c-38.5-12.23-63.99-31.6-61.39-49.5
			C-1063.44-454.99-1041.76-465.41-1010.76-468.76z"/>
	</g>
</g>
<path class="st1" d="M40,80L40,80C17.91,80,0,62.09,0,40v0C0,17.91,17.91,0,40,0h0c22.09,0,40,17.91,40,40v0
	C80,62.09,62.09,80,40,80z"/>
<g>
	<ellipse cx="31.6" cy="40.35" rx="2.99" ry="16.76"/>
	<ellipse cx="25.39" cy="40.35" rx="1.88" ry="14.55"/>
	<ellipse cx="20.66" cy="40.35" rx="1.45" ry="12.08"/>
	<ellipse cx="16.88" cy="40.35" rx="1.07" ry="10.03"/>
	<ellipse cx="13.75" cy="40.35" rx="0.76" ry="7.07"/>
	<g>
		<path d="M50.24,29.91c0.58-0.09,1.14-0.13,1.7-0.11c2.13,0.08,4.18,0.95,6.48,2.48c0.11,0.07,0.22,0.15,0.33,0.23
			c0.89,0.65,1.98,1.03,3.17,1.03c0.92,0,1.78-0.23,2.53-0.63c1.72-0.92,2.9-2.74,2.9-4.83c0-3.02-2.43-5.46-5.43-5.46
			c-1.18,0-2.26,0.38-3.15,1.02c-0.12,0.08-0.24,0.17-0.36,0.25c-4.25,2.75-9.71,2.75-13.96,0c-0.12-0.08-0.24-0.17-0.36-0.25
			c-0.89-0.64-1.98-1.02-3.15-1.02c-3,0-5.43,2.45-5.43,5.46c0,1.2,0.39,2.31,1.05,3.21c3.62,5.25,3.61,9.85,0,17.43
			c-0.48,1.01-1.05,2.01-1.05,3.22c0,3.02,2.43,5.46,5.43,5.46c3,0,5.43-2.45,5.43-5.46c0-1.2-0.53-2.23-1.05-3.22
			c-2.36-4.46-2.49-4.97-2.67-7.66c-0.14-1.98,1.45-3.68,3.44-3.68c4.38,0.01,8.11,2.62,10.94,6.2c1.26,1.48,2.27,2.4,3.99,2.4
			c2.5,0,4.53-2.04,4.53-4.56c0-1.31-0.55-2.54-1.42-3.39c-0.81-0.8-1.91-1.27-3.11-1.17c-0.63,0.05-1.15,0.15-1.71,0.34
			c-0.12,0.04-0.22,0.09-0.35,0.14c-2.81,0.94-5.59,1.07-8.07,0.29c-3.79-1.2-6.3-3.11-6.05-4.88
			C45.05,31.26,47.19,30.24,50.24,29.91z"/>
	</g>
</g>
<rect x="-90.27" class="st1" width="80" height="80"/>
<g>
	<ellipse cx="-59.1" cy="40.36" rx="3.15" ry="17.61"/>
	<ellipse cx="-65.63" cy="40.36" rx="1.98" ry="15.29"/>
	<ellipse cx="-70.6" cy="40.36" rx="1.52" ry="12.7"/>
	<ellipse cx="-74.58" cy="40.36" rx="1.13" ry="10.54"/>
	<ellipse cx="-77.86" cy="40.36" rx="0.8" ry="7.42"/>
	<g>
		<path d="M-39.52,29.39c0.61-0.1,1.2-0.14,1.78-0.12c2.24,0.08,4.39,1,6.81,2.6c0.12,0.08,0.23,0.16,0.34,0.24
			c0.94,0.68,2.08,1.08,3.33,1.08c0.96,0,1.87-0.24,2.66-0.66c1.81-0.96,3.05-2.88,3.05-5.08c0-3.17-2.56-5.74-5.71-5.74
			c-1.24,0-2.38,0.4-3.31,1.07c-0.12,0.09-0.25,0.18-0.38,0.26c-4.46,2.89-10.21,2.89-14.67,0c-0.13-0.08-0.25-0.18-0.38-0.26
			c-0.93-0.67-2.08-1.07-3.31-1.07c-3.15,0-5.71,2.57-5.71,5.74c0,1.26,0.41,2.43,1.1,3.38c3.8,5.51,3.8,10.35,0,18.31
			c-0.5,1.06-1.1,2.11-1.1,3.38c0,3.17,2.55,5.74,5.71,5.74c3.15,0,5.71-2.57,5.71-5.74c0-1.27-0.55-2.34-1.1-3.38
			c-2.48-4.69-2.62-5.22-2.81-8.05c-0.14-2.09,1.52-3.87,3.61-3.87c4.6,0.01,8.52,2.76,11.49,6.51c1.33,1.56,2.38,2.53,4.2,2.53
			c2.63,0,4.76-2.15,4.76-4.79c0-1.37-0.58-2.67-1.5-3.57c-0.85-0.84-2.01-1.33-3.27-1.22c-0.66,0.05-1.21,0.16-1.8,0.36
			c-0.13,0.04-0.23,0.1-0.37,0.14c-2.95,0.99-5.87,1.13-8.48,0.31c-3.99-1.27-6.62-3.27-6.36-5.12
			C-44.97,30.82-42.73,29.74-39.52,29.39z"/>
	</g>
</g>
<path d="M40-14.73L40-14.73c-22.09,0-40-17.91-40-40v0c0-22.09,17.91-40,40-40h0c22.09,0,40,17.91,40,40v0
	C80-32.64,62.09-14.73,40-14.73z"/>
<g>
	<ellipse class="st1" cx="31.6" cy="-54.39" rx="2.99" ry="16.76"/>
	<ellipse class="st1" cx="25.39" cy="-54.39" rx="1.88" ry="14.55"/>
	<ellipse class="st1" cx="20.66" cy="-54.39" rx="1.45" ry="12.08"/>
	<ellipse class="st1" cx="16.88" cy="-54.39" rx="1.07" ry="10.03"/>
	<ellipse class="st1" cx="13.75" cy="-54.39" rx="0.76" ry="7.07"/>
	<g>
		<path class="st1" d="M50.24-64.83c0.58-0.09,1.14-0.13,1.7-0.11c2.13,0.08,4.18,0.95,6.48,2.48c0.11,0.07,0.22,0.15,0.33,0.23
			c0.89,0.65,1.98,1.03,3.17,1.03c0.92,0,1.78-0.23,2.53-0.63c1.72-0.92,2.9-2.74,2.9-4.83c0-3.02-2.43-5.46-5.43-5.46
			c-1.18,0-2.26,0.38-3.15,1.02c-0.12,0.08-0.24,0.17-0.36,0.25c-4.25,2.75-9.71,2.75-13.96,0c-0.12-0.08-0.24-0.17-0.36-0.25
			c-0.89-0.64-1.98-1.02-3.15-1.02c-3,0-5.43,2.45-5.43,5.46c0,1.2,0.39,2.31,1.05,3.21c3.62,5.25,3.61,9.85,0,17.43
			c-0.48,1.01-1.05,2.01-1.05,3.22c0,3.02,2.43,5.46,5.43,5.46c3,0,5.43-2.45,5.43-5.46c0-1.2-0.53-2.23-1.05-3.22
			c-2.36-4.46-2.49-4.97-2.67-7.66c-0.14-1.98,1.45-3.68,3.44-3.68c4.38,0.01,8.11,2.62,10.94,6.2c1.26,1.48,2.27,2.4,3.99,2.4
			c2.5,0,4.53-2.04,4.53-4.56c0-1.31-0.55-2.54-1.42-3.39c-0.81-0.8-1.91-1.27-3.11-1.17c-0.63,0.05-1.15,0.15-1.71,0.34
			c-0.12,0.04-0.22,0.09-0.35,0.14c-2.81,0.94-5.59,1.07-8.07,0.29c-3.79-1.2-6.3-3.11-6.05-4.88
			C45.05-63.47,47.19-64.5,50.24-64.83z"/>
	</g>
</g>
<rect x="-90.27" y="-94.73" width="80" height="80"/>
<g>
	<ellipse class="st1" cx="-59.1" cy="-54.37" rx="3.15" ry="17.61"/>
	<ellipse class="st1" cx="-65.63" cy="-54.37" rx="1.98" ry="15.29"/>
	<ellipse class="st1" cx="-70.6" cy="-54.37" rx="1.52" ry="12.7"/>
	<ellipse class="st1" cx="-74.58" cy="-54.37" rx="1.13" ry="10.54"/>
	<ellipse class="st1" cx="-77.86" cy="-54.37" rx="0.8" ry="7.42"/>
	<g>
		<path class="st1" d="M-39.52-65.34c0.61-0.1,1.2-0.14,1.78-0.12c2.24,0.08,4.39,1,6.81,2.6c0.12,0.08,0.23,0.16,0.34,0.24
			c0.94,0.68,2.08,1.08,3.33,1.08c0.96,0,1.87-0.24,2.66-0.66c1.81-0.96,3.05-2.88,3.05-5.08c0-3.17-2.56-5.74-5.71-5.74
			c-1.24,0-2.38,0.4-3.31,1.07c-0.12,0.09-0.25,0.18-0.38,0.26c-4.46,2.89-10.21,2.89-14.67,0c-0.13-0.08-0.25-0.18-0.38-0.26
			c-0.93-0.67-2.08-1.07-3.31-1.07c-3.15,0-5.71,2.57-5.71,5.74c0,1.26,0.41,2.43,1.1,3.38c3.8,5.51,3.8,10.35,0,18.31
			c-0.5,1.06-1.1,2.11-1.1,3.38c0,3.17,2.55,5.74,5.71,5.74c3.15,0,5.71-2.57,5.71-5.74c0-1.27-0.55-2.34-1.1-3.38
			c-2.48-4.69-2.62-5.22-2.81-8.05c-0.14-2.09,1.52-3.87,3.61-3.87c4.6,0.01,8.52,2.76,11.49,6.51c1.33,1.56,2.38,2.53,4.2,2.53
			c2.63,0,4.76-2.15,4.76-4.79c0-1.37-0.58-2.67-1.5-3.57c-0.85-0.84-2.01-1.33-3.27-1.22c-0.66,0.05-1.21,0.16-1.8,0.36
			c-0.13,0.04-0.23,0.1-0.37,0.14c-2.95,0.99-5.87,1.13-8.48,0.31c-3.99-1.27-6.62-3.27-6.36-5.12
			C-44.97-63.91-42.73-64.99-39.52-65.34z"/>
	</g>
</g>
<rect x="-2351.43" y="-2249.22" style="fill:none;" width="149.26" height="14.26"/>
<text transform="matrix(1 0 0 1 -2351.4321 -2237.8271)" style="font-family:'MyriadPro-Regular'; font-size:12px;">corrección de curvas</text>
<rect x="-1682.82" y="-2242.09" style="fill:none;" width="149.26" height="14.26"/>
<text transform="matrix(1 0 0 1 -1682.8169 -2230.6978)" style="font-family:'MyriadPro-Regular'; font-size:12px;">sin modificar (NO UTILIZAR)</text>
<rect x="-1599.38" y="611.54" width="627.33" height="427.32"/>
<path class="st2" d="M-1014.52,996.13h-537.87c-6.6,0-12-5.4-12-12V665.68c0-6.6,5.4-12,12-12h537.87c6.6,0,12,5.4,12,12v318.45
	C-1002.52,990.73-1007.92,996.13-1014.52,996.13z"/>
<rect x="-1537.84" y="686.08" style="fill:none;" width="324.96" height="31.99"/>
<text transform="matrix(1 0 0 1 -1537.8385 700.4745)" style="fill:#1D1D1B; font-family:'MonumentExtended-Regular'; font-size:18px;">FERNANDO CABRERA</text>
<line class="st3" x1="-1504.6" y1="823.16" x2="-1062.31" y2="823.16"/>
<line class="st4" x1="-1504.6" y1="810.01" x2="-1504.6" y2="836.32"/>
<line class="st4" x1="-1062.31" y1="807.63" x2="-1062.31" y2="833.94"/>
<line class="st3" x1="-1504.6" y1="871.26" x2="-1062.31" y2="871.26"/>
<line class="st4" x1="-1504.6" y1="858.11" x2="-1504.6" y2="884.42"/>
<line class="st4" x1="-1062.31" y1="855.73" x2="-1062.31" y2="882.04"/>
<rect x="-1537.84" y="755.56" class="st3" width="511.83" height="156.75"/>
<line class="st3" x1="-1537.84" y1="912.31" x2="-1537.84" y2="925.81"/>
<line class="st3" x1="-1473.86" y1="912.31" x2="-1473.86" y2="925.81"/>
<line class="st3" x1="-1409.88" y1="912.31" x2="-1409.88" y2="925.81"/>
<line class="st3" x1="-1345.9" y1="912.31" x2="-1345.9" y2="925.81"/>
<line class="st3" x1="-1281.92" y1="912.31" x2="-1281.92" y2="925.81"/>
<line class="st3" x1="-1217.94" y1="912.31" x2="-1217.94" y2="925.81"/>
<line class="st3" x1="-1153.96" y1="912.31" x2="-1153.96" y2="925.81"/>
<line class="st3" x1="-1089.99" y1="912.31" x2="-1089.99" y2="925.81"/>
<line class="st3" x1="-1026.01" y1="912.31" x2="-1026.01" y2="925.81"/>
<g>
	<path d="M-1536.1,935.82c5.02,0,7.54,1.91,7.87,5.55h-3.29c-0.31-2.03-1.87-2.83-4.57-2.83c-3.29,0-4.68,1.17-4.68,3.75
		c0,2.59,1.4,3.78,4.68,3.78c2.68,0,4.27-0.81,4.57-2.86h3.29c-0.32,3.66-2.84,5.58-7.87,5.58c-5.55,0-7.92-2.3-7.92-6.5
		C-1544.02,938.1-1541.64,935.82-1536.1,935.82z"/>
</g>
<g>
	<path d="M-1479.81,942.28c0-4.18,2.38-6.46,7.92-6.46c5.53,0,7.92,2.3,7.92,6.46c0,4.18-2.39,6.5-7.92,6.5
		C-1477.44,948.78-1479.81,946.48-1479.81,942.28z M-1467.21,942.28c0-2.56-1.3-3.75-4.68-3.75s-4.68,1.17-4.68,3.75
		c0,2.59,1.31,3.78,4.68,3.78S-1467.21,944.85-1467.21,942.28z"/>
</g>
<g>
	<path d="M-1396.58,948.78h-3.24v-8.64l-5.24,8.64h-2.34l-5.24-8.64v8.64h-3.24v-12.6h4.38l5.28,8.89l5.28-8.89h4.38V948.78z"/>
</g>
<g>
	<path d="M-1337.26,940.8c0,2.81-1.96,4.61-4.83,4.61h-6.66v3.37h-3.24v-12.6h9.9C-1339.22,936.18-1337.26,937.99-1337.26,940.8z
		 M-1340.5,940.8c0-1.91-1.51-1.91-2.48-1.91h-5.76v3.8h5.76C-1342.02,942.69-1340.5,942.69-1340.5,940.8z"/>
</g>
<g>
	<path d="M-1287.96,942.28c0-4.18,2.38-6.46,7.92-6.46c5.53,0,7.92,2.3,7.92,6.46c0,4.18-2.39,6.5-7.92,6.5
		C-1285.58,948.78-1287.96,946.48-1287.96,942.28z M-1275.35,942.28c0-2.56-1.3-3.75-4.68-3.75s-4.68,1.17-4.68,3.75
		c0,2.59,1.31,3.78,4.68,3.78S-1275.35,944.85-1275.35,942.28z"/>
</g>
<g>
	<path d="M-1220.91,944.87c0,1.13,1.17,1.57,4.61,1.57c3.33,0,3.87-0.22,3.87-1.04c0-0.81-0.5-0.86-4.23-1.1
		c-4.66-0.27-6.95-0.63-6.95-3.19c0-2.77,3.24-3.29,7.02-3.29c4,0,6.9,0.52,6.9,3.44h-3.1c0-0.88-1.12-1.1-3.98-1.1
		c-2.92,0-3.75,0.22-3.75,0.83c0,0.67,0.56,0.77,4.21,1.04c4.14,0.31,6.97,0.41,6.97,3.24c0,2.99-2.7,3.51-6.79,3.51
		c-4.09,0-7.87-0.52-7.87-3.91H-1220.91z"/>
</g>
<g>
	<path d="M-1156.77,938.75v2.56h10.08v2.34h-10.08v2.56h10.08v2.58h-13.32v-12.6h13.32v2.57H-1156.77z"/>
</g>
<g>
	<path d="M-1084.03,945.03l2.32,3.75h-3.82l-2.04-3.37h-5.22v3.37h-3.24v-12.6h9.9c2.86,0,4.83,1.82,4.83,4.63
		C-1081.29,942.86-1082.34,944.37-1084.03,945.03z M-1092.78,942.69h5.76c0.97,0,2.48,0,2.48-1.89c0-1.91-1.51-1.91-2.48-1.91h-5.76
		V942.69z"/>
</g>
<g>
	<path d="M-1020.76,942.1l-0.78,2.61h2.31v1.7h-2.82l-0.71,2.38h-2.1l0.71-2.38h-3.45l-0.71,2.38h-2.1l0.71-2.38h-2.37v-1.7h2.88
		l0.78-2.61h-2.46v-1.7h2.96l0.61-2.02h2.1l-0.61,2.02h3.45l0.61-2.02h2.1l-0.61,2.02h2.22v1.7H-1020.76z M-1022.87,942.1h-3.45
		l-0.78,2.61h3.45L-1022.87,942.1z"/>
</g>
<g>
	<ellipse cx="-1363.1" cy="835.36" rx="9.6" ry="53.73"/>
	<ellipse cx="-1383.01" cy="835.36" rx="6.03" ry="46.65"/>
	<ellipse cx="-1398.19" cy="835.36" rx="4.64" ry="38.74"/>
	<ellipse cx="-1410.31" cy="835.36" rx="3.44" ry="32.17"/>
	<ellipse cx="-1420.35" cy="835.36" rx="2.43" ry="22.65"/>
	<g>
		<path d="M-1303.35,801.9c1.85-0.3,3.66-0.41,5.45-0.35c6.82,0.24,13.4,3.05,20.79,7.94c0.36,0.24,0.7,0.49,1.05,0.74
			c2.86,2.07,6.36,3.3,10.15,3.3c2.93,0,5.69-0.73,8.12-2.02c5.53-2.93,9.29-8.78,9.29-15.5c0-9.68-7.8-17.52-17.41-17.52
			c-3.77,0-7.26,1.22-10.11,3.27c-0.38,0.27-0.75,0.55-1.15,0.81c-13.62,8.81-31.14,8.81-44.75,0c-0.39-0.25-0.77-0.54-1.15-0.81
			c-2.85-2.05-6.33-3.27-10.11-3.27c-9.62,0-17.41,7.84-17.41,17.52c0,3.86,1.25,7.41,3.35,10.31c11.59,16.83,11.59,31.57,0,55.88
			c-1.54,3.23-3.35,6.45-3.35,10.31c0,9.67,7.8,17.52,17.41,17.52s17.42-7.84,17.42-17.52c0-3.86-1.69-7.15-3.36-10.31
			c-7.56-14.3-7.98-15.93-8.58-24.55c-0.44-6.36,4.64-11.81,11.02-11.8c14.03,0.03,25.99,8.41,35.06,19.87
			c4.05,4.76,7.26,7.71,12.8,7.71c8.03,0,14.53-6.55,14.53-14.62c0-4.19-1.76-8.14-4.56-10.88c-2.6-2.55-6.12-4.06-9.97-3.74
			c-2.01,0.16-3.69,0.48-5.49,1.09c-0.38,0.13-0.71,0.29-1.14,0.44c-9,3.02-17.91,3.43-25.86,0.94
			c-12.16-3.86-20.21-9.98-19.39-15.64C-1319.98,806.24-1313.14,802.95-1303.35,801.9z"/>
	</g>
</g>
<rect x="-1599.38" y="1061.79" width="627.33" height="427.32"/>
<path class="st5" d="M-1014.52,1446.38h-537.87c-6.6,0-12-5.4-12-12v-318.45c0-6.6,5.4-12,12-12h537.87c6.6,0,12,5.4,12,12v318.45
	C-1002.52,1440.98-1007.92,1446.38-1014.52,1446.38z"/>
<rect x="-1537.84" y="1136.33" style="fill:none;" width="324.96" height="31.99"/>
<text transform="matrix(1 0 0 1 -1537.8385 1150.7266)" style="fill:#1D1D1B; font-family:'MonumentExtended-Regular'; font-size:18px;">FERNANDO CABRERA</text>
<line class="st3" x1="-1504.6" y1="1273.41" x2="-1062.31" y2="1273.41"/>
<line class="st4" x1="-1504.6" y1="1260.26" x2="-1504.6" y2="1286.57"/>
<line class="st4" x1="-1062.31" y1="1257.88" x2="-1062.31" y2="1284.19"/>
<line class="st3" x1="-1504.6" y1="1321.52" x2="-1062.31" y2="1321.52"/>
<line class="st4" x1="-1504.6" y1="1308.36" x2="-1504.6" y2="1334.67"/>
<line class="st4" x1="-1062.31" y1="1305.98" x2="-1062.31" y2="1332.29"/>
<rect x="-1537.84" y="1205.82" class="st3" width="511.83" height="156.75"/>
<line class="st3" x1="-1537.84" y1="1362.56" x2="-1537.84" y2="1376.06"/>
<line class="st3" x1="-1473.86" y1="1362.56" x2="-1473.86" y2="1376.06"/>
<line class="st3" x1="-1409.88" y1="1362.56" x2="-1409.88" y2="1376.06"/>
<line class="st3" x1="-1345.9" y1="1362.56" x2="-1345.9" y2="1376.06"/>
<line class="st3" x1="-1281.92" y1="1362.56" x2="-1281.92" y2="1376.06"/>
<line class="st3" x1="-1217.94" y1="1362.56" x2="-1217.94" y2="1376.06"/>
<line class="st3" x1="-1153.96" y1="1362.56" x2="-1153.96" y2="1376.06"/>
<line class="st3" x1="-1089.99" y1="1362.56" x2="-1089.99" y2="1376.06"/>
<line class="st3" x1="-1026.01" y1="1362.56" x2="-1026.01" y2="1376.06"/>
<g>
	<path d="M-1536.1,1386.07c5.02,0,7.54,1.91,7.87,5.55h-3.29c-0.31-2.03-1.87-2.83-4.57-2.83c-3.29,0-4.68,1.17-4.68,3.75
		c0,2.59,1.4,3.78,4.68,3.78c2.68,0,4.27-0.81,4.57-2.86h3.29c-0.32,3.66-2.84,5.58-7.87,5.58c-5.55,0-7.92-2.3-7.92-6.5
		C-1544.02,1388.35-1541.64,1386.07-1536.1,1386.07z"/>
</g>
<g>
	<path d="M-1479.81,1392.53c0-4.18,2.38-6.46,7.92-6.46c5.53,0,7.92,2.3,7.92,6.46c0,4.18-2.39,6.5-7.92,6.5
		C-1477.44,1399.03-1479.81,1396.73-1479.81,1392.53z M-1467.21,1392.53c0-2.56-1.3-3.75-4.68-3.75s-4.68,1.17-4.68,3.75
		c0,2.59,1.31,3.78,4.68,3.78S-1467.21,1395.11-1467.21,1392.53z"/>
</g>
<g>
	<path d="M-1396.58,1399.03h-3.24v-8.64l-5.24,8.64h-2.34l-5.24-8.64v8.64h-3.24v-12.6h4.38l5.28,8.89l5.28-8.89h4.38V1399.03z"/>
</g>
<g>
	<path d="M-1337.26,1391.06c0,2.81-1.96,4.61-4.83,4.61h-6.66v3.37h-3.24v-12.6h9.9
		C-1339.22,1386.43-1337.26,1388.25-1337.26,1391.06z M-1340.5,1391.06c0-1.91-1.51-1.91-2.48-1.91h-5.76v3.8h5.76
		C-1342.02,1392.95-1340.5,1392.95-1340.5,1391.06z"/>
</g>
<g>
	<path d="M-1287.96,1392.53c0-4.18,2.38-6.46,7.92-6.46c5.53,0,7.92,2.3,7.92,6.46c0,4.18-2.39,6.5-7.92,6.5
		C-1285.58,1399.03-1287.96,1396.73-1287.96,1392.53z M-1275.35,1392.53c0-2.56-1.3-3.75-4.68-3.75s-4.68,1.17-4.68,3.75
		c0,2.59,1.31,3.78,4.68,3.78S-1275.35,1395.11-1275.35,1392.53z"/>
</g>
<g>
	<path d="M-1220.91,1395.12c0,1.13,1.17,1.57,4.61,1.57c3.33,0,3.87-0.22,3.87-1.04c0-0.81-0.5-0.86-4.23-1.1
		c-4.66-0.27-6.95-0.63-6.95-3.19c0-2.77,3.24-3.29,7.02-3.29c4,0,6.9,0.52,6.9,3.44h-3.1c0-0.88-1.12-1.1-3.98-1.1
		c-2.92,0-3.75,0.22-3.75,0.83c0,0.67,0.56,0.77,4.21,1.04c4.14,0.31,6.97,0.41,6.97,3.24c0,2.99-2.7,3.51-6.79,3.51
		c-4.09,0-7.87-0.52-7.87-3.91H-1220.91z"/>
</g>
<g>
	<path d="M-1156.77,1389v2.56h10.08v2.34h-10.08v2.56h10.08v2.58h-13.32v-12.6h13.32v2.57H-1156.77z"/>
</g>
<g>
	<path d="M-1084.03,1395.29l2.32,3.75h-3.82l-2.04-3.37h-5.22v3.37h-3.24v-12.6h9.9c2.86,0,4.83,1.82,4.83,4.63
		C-1081.29,1393.11-1082.34,1394.62-1084.03,1395.29z M-1092.78,1392.95h5.76c0.97,0,2.48,0,2.48-1.89c0-1.91-1.51-1.91-2.48-1.91
		h-5.76V1392.95z"/>
</g>
<g>
	<path d="M-1020.76,1392.35l-0.78,2.61h2.31v1.7h-2.82l-0.71,2.38h-2.1l0.71-2.38h-3.45l-0.71,2.38h-2.1l0.71-2.38h-2.37v-1.7h2.88
		l0.78-2.61h-2.46v-1.7h2.96l0.61-2.02h2.1l-0.61,2.02h3.45l0.61-2.02h2.1l-0.61,2.02h2.22v1.7H-1020.76z M-1022.87,1392.35h-3.45
		l-0.78,2.61h3.45L-1022.87,1392.35z"/>
</g>
<g>
	<ellipse cx="-1363.1" cy="1285.61" rx="9.6" ry="53.73"/>
	<ellipse cx="-1383.01" cy="1285.61" rx="6.03" ry="46.65"/>
	<ellipse cx="-1398.19" cy="1285.61" rx="4.64" ry="38.74"/>
	<ellipse cx="-1410.31" cy="1285.61" rx="3.44" ry="32.17"/>
	<ellipse cx="-1420.35" cy="1285.61" rx="2.43" ry="22.65"/>
	<g>
		<path d="M-1303.35,1252.15c1.85-0.3,3.66-0.41,5.45-0.35c6.82,0.24,13.4,3.05,20.79,7.94c0.36,0.24,0.7,0.49,1.05,0.74
			c2.86,2.07,6.36,3.3,10.15,3.3c2.93,0,5.69-0.73,8.12-2.02c5.53-2.93,9.29-8.78,9.29-15.5c0-9.68-7.8-17.52-17.41-17.52
			c-3.77,0-7.26,1.22-10.11,3.27c-0.38,0.27-0.75,0.55-1.15,0.81c-13.62,8.81-31.14,8.81-44.75,0c-0.39-0.25-0.77-0.54-1.15-0.81
			c-2.85-2.05-6.33-3.27-10.11-3.27c-9.62,0-17.41,7.84-17.41,17.52c0,3.86,1.25,7.41,3.35,10.31c11.59,16.83,11.59,31.57,0,55.88
			c-1.54,3.23-3.35,6.45-3.35,10.31c0,9.67,7.8,17.52,17.41,17.52s17.42-7.84,17.42-17.52c0-3.86-1.69-7.15-3.36-10.31
			c-7.56-14.3-7.98-15.93-8.58-24.55c-0.44-6.36,4.64-11.81,11.02-11.8c14.03,0.03,25.99,8.41,35.06,19.87
			c4.05,4.76,7.26,7.71,12.8,7.71c8.03,0,14.53-6.55,14.53-14.62c0-4.19-1.76-8.14-4.56-10.88c-2.6-2.55-6.12-4.06-9.97-3.74
			c-2.01,0.17-3.69,0.48-5.49,1.09c-0.38,0.13-0.71,0.29-1.14,0.44c-9,3.02-17.91,3.43-25.86,0.94
			c-12.16-3.86-20.21-9.98-19.39-15.64C-1319.98,1256.5-1313.14,1253.2-1303.35,1252.15z"/>
	</g>
</g>
<rect x="-840.78" y="611.54" class="st5" width="627.33" height="427.32"/>
<path d="M-255.92,996.13H-793.8c-6.6,0-12-5.4-12-12V665.68c0-6.6,5.4-12,12-12h537.87c6.6,0,12,5.4,12,12v318.45
	C-243.92,990.73-249.32,996.13-255.92,996.13z"/>
<rect x="-779.24" y="686.08" style="fill:none;" width="324.96" height="31.99"/>
<text transform="matrix(1 0 0 1 -779.2423 700.4745)" class="st5" style="font-family:'MonumentExtended-Regular'; font-size:18px;">FERNANDO CABRERA</text>
<g>
	<path class="st5" d="M-777.5,935.82c5.02,0,7.54,1.91,7.87,5.55h-3.29c-0.31-2.03-1.87-2.83-4.57-2.83c-3.29,0-4.68,1.17-4.68,3.75
		c0,2.59,1.4,3.78,4.68,3.78c2.68,0,4.27-0.81,4.57-2.86h3.29c-0.32,3.66-2.84,5.58-7.87,5.58c-5.55,0-7.92-2.3-7.92-6.5
		C-785.42,938.1-783.05,935.82-777.5,935.82z"/>
</g>
<g>
	<path class="st5" d="M-721.22,942.28c0-4.18,2.38-6.46,7.92-6.46c5.53,0,7.92,2.3,7.92,6.46c0,4.18-2.39,6.5-7.92,6.5
		C-718.84,948.78-721.22,946.48-721.22,942.28z M-708.61,942.28c0-2.56-1.3-3.75-4.68-3.75s-4.68,1.17-4.68,3.75
		c0,2.59,1.31,3.78,4.68,3.78S-708.61,944.85-708.61,942.28z"/>
</g>
<g>
	<path class="st5" d="M-637.98,948.78h-3.24v-8.64l-5.24,8.64h-2.34l-5.24-8.64v8.64h-3.24v-12.6h4.38l5.28,8.89l5.28-8.89h4.38
		V948.78z"/>
</g>
<g>
	<path class="st5" d="M-578.66,940.8c0,2.81-1.96,4.61-4.83,4.61h-6.66v3.37h-3.24v-12.6h9.9
		C-580.63,936.18-578.66,937.99-578.66,940.8z M-581.91,940.8c0-1.91-1.51-1.91-2.48-1.91h-5.76v3.8h5.76
		C-583.42,942.69-581.91,942.69-581.91,940.8z"/>
</g>
<g>
	<path class="st5" d="M-529.36,942.28c0-4.18,2.38-6.46,7.92-6.46c5.53,0,7.92,2.3,7.92,6.46c0,4.18-2.39,6.5-7.92,6.5
		C-526.98,948.78-529.36,946.48-529.36,942.28z M-516.76,942.28c0-2.56-1.3-3.75-4.68-3.75s-4.68,1.17-4.68,3.75
		c0,2.59,1.31,3.78,4.68,3.78S-516.76,944.85-516.76,942.28z"/>
</g>
<g>
	<path class="st5" d="M-462.32,944.87c0,1.13,1.17,1.57,4.61,1.57c3.33,0,3.87-0.22,3.87-1.04c0-0.81-0.5-0.86-4.23-1.1
		c-4.66-0.27-6.95-0.63-6.95-3.19c0-2.77,3.24-3.29,7.02-3.29c4,0,6.9,0.52,6.9,3.44h-3.1c0-0.88-1.12-1.1-3.98-1.1
		c-2.92,0-3.75,0.22-3.75,0.83c0,0.67,0.56,0.77,4.21,1.04c4.14,0.31,6.97,0.41,6.97,3.24c0,2.99-2.7,3.51-6.79,3.51
		c-4.09,0-7.87-0.52-7.87-3.91H-462.32z"/>
</g>
<g>
	<path class="st5" d="M-398.17,938.75v2.56h10.08v2.34h-10.08v2.56h10.08v2.58h-13.32v-12.6h13.32v2.57H-398.17z"/>
</g>
<g>
	<path class="st5" d="M-325.43,945.03l2.32,3.75h-3.82l-2.04-3.37h-5.22v3.37h-3.24v-12.6h9.9c2.86,0,4.83,1.82,4.83,4.63
		C-322.7,942.86-323.74,944.37-325.43,945.03z M-334.18,942.69h5.76c0.97,0,2.48,0,2.48-1.89c0-1.91-1.51-1.91-2.48-1.91h-5.76
		V942.69z"/>
</g>
<g>
	<path class="st5" d="M-266.17,942.1l-0.78,2.61h2.31v1.7h-2.82l-0.71,2.38h-2.1l0.71-2.38h-3.45l-0.71,2.38h-2.1l0.71-2.38h-2.37
		v-1.7h2.88l0.78-2.61h-2.46v-1.7h2.96l0.61-2.02h2.1l-0.61,2.02h3.45l0.61-2.02h2.1l-0.61,2.02h2.22v1.7H-266.17z M-268.27,942.1
		h-3.45l-0.78,2.61h3.45L-268.27,942.1z"/>
</g>
<g>
	<ellipse class="st5" cx="-539.42" cy="808.67" rx="9.06" ry="50.69"/>
	<ellipse class="st5" cx="-558.21" cy="808.67" rx="5.69" ry="44.01"/>
	<ellipse class="st5" cx="-572.53" cy="808.67" rx="4.38" ry="36.55"/>
	<ellipse class="st5" cx="-583.97" cy="808.67" rx="3.25" ry="30.35"/>
	<ellipse class="st5" cx="-593.44" cy="808.67" rx="2.3" ry="21.37"/>
	<g>
		<path class="st5" d="M-483.05,777.1c1.74-0.29,3.45-0.39,5.14-0.33c6.44,0.23,12.64,2.88,19.61,7.49c0.34,0.22,0.66,0.46,0.99,0.7
			c2.7,1.95,6,3.12,9.58,3.12c2.77,0,5.37-0.69,7.66-1.91c5.21-2.77,8.77-8.28,8.77-14.63c0-9.13-7.36-16.53-16.43-16.53
			c-3.56,0-6.85,1.15-9.53,3.08c-0.36,0.26-0.71,0.52-1.08,0.76c-12.85,8.31-29.38,8.31-42.23,0c-0.37-0.24-0.72-0.5-1.08-0.76
			c-2.69-1.94-5.98-3.08-9.53-3.08c-9.08,0-16.43,7.4-16.43,16.53c0,3.64,1.18,6.99,3.16,9.72c10.94,15.88,10.93,29.79,0,52.72
			c-1.45,3.05-3.16,6.08-3.16,9.73c0,9.13,7.36,16.53,16.43,16.53c9.08,0,16.44-7.4,16.44-16.53c0-3.64-1.59-6.75-3.17-9.73
			c-7.13-13.49-7.53-15.03-8.09-23.17c-0.41-6,4.38-11.14,10.4-11.13c13.24,0.03,24.52,7.94,33.08,18.75
			c3.82,4.49,6.85,7.27,12.08,7.27c7.57,0,13.71-6.18,13.71-13.79c0-3.95-1.66-7.68-4.3-10.27c-2.46-2.41-5.77-3.83-9.41-3.53
			c-1.9,0.16-3.48,0.45-5.18,1.03c-0.36,0.12-0.67,0.28-1.07,0.41c-8.49,2.85-16.9,3.24-24.4,0.89
			c-11.47-3.64-19.07-9.42-18.3-14.75C-498.75,781.2-492.29,778.09-483.05,777.1z"/>
	</g>
</g>
<rect x="-840.78" y="1059.76" width="627.33" height="427.32"/>
<path class="st5" d="M-255.92,1444.34H-793.8c-6.6,0-12-5.4-12-12v-318.45c0-6.6,5.4-12,12-12h537.87c6.6,0,12,5.4,12,12v318.45
	C-243.92,1438.94-249.32,1444.34-255.92,1444.34z"/>
<rect x="-779.24" y="1134.29" style="fill:none;" width="324.96" height="31.99"/>
<text transform="matrix(1 0 0 1 -779.2423 1148.688)" style="font-family:'MonumentExtended-Regular'; font-size:18px;">FERNANDO CABRERA</text>
<g>
	<path d="M-777.5,1384.03c5.02,0,7.54,1.91,7.87,5.55h-3.29c-0.31-2.03-1.87-2.83-4.57-2.83c-3.29,0-4.68,1.17-4.68,3.75
		c0,2.59,1.4,3.78,4.68,3.78c2.68,0,4.27-0.81,4.57-2.86h3.29c-0.32,3.66-2.84,5.58-7.87,5.58c-5.55,0-7.92-2.3-7.92-6.5
		C-785.42,1386.32-783.05,1384.03-777.5,1384.03z"/>
</g>
<g>
	<path d="M-721.22,1390.49c0-4.18,2.38-6.46,7.92-6.46c5.53,0,7.92,2.3,7.92,6.46c0,4.18-2.39,6.5-7.92,6.5
		C-718.84,1396.99-721.22,1394.69-721.22,1390.49z M-708.61,1390.49c0-2.56-1.3-3.75-4.68-3.75s-4.68,1.17-4.68,3.75
		c0,2.59,1.31,3.78,4.68,3.78S-708.61,1393.07-708.61,1390.49z"/>
</g>
<g>
	<path d="M-637.98,1396.99h-3.24v-8.64l-5.24,8.64h-2.34l-5.24-8.64v8.64h-3.24v-12.6h4.38l5.28,8.89l5.28-8.89h4.38V1396.99z"/>
</g>
<g>
	<path d="M-578.66,1389.02c0,2.81-1.96,4.61-4.83,4.61h-6.66v3.37h-3.24v-12.6h9.9C-580.63,1384.39-578.66,1386.21-578.66,1389.02z
		 M-581.91,1389.02c0-1.91-1.51-1.91-2.48-1.91h-5.76v3.8h5.76C-583.42,1390.91-581.91,1390.91-581.91,1389.02z"/>
</g>
<g>
	<path d="M-529.36,1390.49c0-4.18,2.38-6.46,7.92-6.46c5.53,0,7.92,2.3,7.92,6.46c0,4.18-2.39,6.5-7.92,6.5
		C-526.98,1396.99-529.36,1394.69-529.36,1390.49z M-516.76,1390.49c0-2.56-1.3-3.75-4.68-3.75s-4.68,1.17-4.68,3.75
		c0,2.59,1.31,3.78,4.68,3.78S-516.76,1393.07-516.76,1390.49z"/>
</g>
<g>
	<path d="M-462.32,1393.09c0,1.13,1.17,1.57,4.61,1.57c3.33,0,3.87-0.22,3.87-1.04c0-0.81-0.5-0.86-4.23-1.1
		c-4.66-0.27-6.95-0.63-6.95-3.19c0-2.77,3.24-3.29,7.02-3.29c4,0,6.9,0.52,6.9,3.44h-3.1c0-0.88-1.12-1.1-3.98-1.1
		c-2.92,0-3.75,0.22-3.75,0.83c0,0.67,0.56,0.77,4.21,1.04c4.14,0.31,6.97,0.41,6.97,3.24c0,2.99-2.7,3.51-6.79,3.51
		c-4.09,0-7.87-0.52-7.87-3.91H-462.32z"/>
</g>
<g>
	<path d="M-398.17,1386.96v2.56h10.08v2.34h-10.08v2.56h10.08v2.58h-13.32v-12.6h13.32v2.57H-398.17z"/>
</g>
<g>
	<path d="M-325.43,1393.25l2.32,3.75h-3.82l-2.04-3.37h-5.22v3.37h-3.24v-12.6h9.9c2.86,0,4.83,1.82,4.83,4.63
		C-322.7,1391.07-323.74,1392.58-325.43,1393.25z M-334.18,1390.91h5.76c0.97,0,2.48,0,2.48-1.89c0-1.91-1.51-1.91-2.48-1.91h-5.76
		V1390.91z"/>
</g>
<g>
	<path d="M-266.17,1390.31l-0.78,2.61h2.31v1.7h-2.82l-0.71,2.38h-2.1l0.71-2.38h-3.45l-0.71,2.38h-2.1l0.71-2.38h-2.37v-1.7h2.88
		l0.78-2.61h-2.46v-1.7h2.96l0.61-2.02h2.1l-0.61,2.02h3.45l0.61-2.02h2.1l-0.61,2.02h2.22v1.7H-266.17z M-268.27,1390.31h-3.45
		l-0.78,2.61h3.45L-268.27,1390.31z"/>
</g>
<g>
	<ellipse cx="-539.42" cy="1256.89" rx="9.06" ry="50.69"/>
	<ellipse cx="-558.21" cy="1256.89" rx="5.69" ry="44.01"/>
	<ellipse cx="-572.53" cy="1256.89" rx="4.38" ry="36.55"/>
	<ellipse cx="-583.97" cy="1256.89" rx="3.25" ry="30.35"/>
	<ellipse cx="-593.44" cy="1256.89" rx="2.3" ry="21.37"/>
	<g>
		<path d="M-483.05,1225.31c1.74-0.29,3.45-0.39,5.14-0.33c6.44,0.23,12.64,2.88,19.61,7.49c0.34,0.22,0.66,0.46,0.99,0.7
			c2.7,1.95,6,3.12,9.58,3.12c2.77,0,5.37-0.69,7.66-1.91c5.21-2.77,8.77-8.28,8.77-14.63c0-9.13-7.36-16.53-16.43-16.53
			c-3.56,0-6.85,1.15-9.53,3.08c-0.36,0.26-0.71,0.52-1.08,0.76c-12.85,8.31-29.38,8.31-42.23,0c-0.37-0.24-0.72-0.5-1.08-0.76
			c-2.69-1.94-5.98-3.08-9.53-3.08c-9.08,0-16.43,7.4-16.43,16.53c0,3.64,1.18,6.99,3.16,9.72c10.94,15.88,10.93,29.79,0,52.72
			c-1.45,3.05-3.16,6.08-3.16,9.73c0,9.13,7.36,16.53,16.43,16.53c9.08,0,16.44-7.4,16.44-16.53c0-3.64-1.59-6.75-3.17-9.73
			c-7.13-13.49-7.53-15.03-8.09-23.17c-0.41-6,4.38-11.14,10.4-11.13c13.24,0.03,24.52,7.94,33.08,18.75
			c3.82,4.49,6.85,7.27,12.08,7.27c7.57,0,13.71-6.18,13.71-13.79c0-3.95-1.66-7.68-4.3-10.27c-2.46-2.41-5.77-3.83-9.41-3.53
			c-1.9,0.16-3.48,0.45-5.18,1.03c-0.36,0.12-0.67,0.28-1.07,0.41c-8.49,2.85-16.9,3.24-24.4,0.89
			c-11.47-3.64-19.07-9.42-18.3-14.75C-498.75,1229.41-492.29,1226.31-483.05,1225.31z"/>
	</g>
</g>
<rect x="-169.54" y="611.54" class="st5" width="627.33" height="427.32"/>
<path d="M415.32,996.13h-537.87c-6.6,0-12-5.4-12-12V665.68c0-6.6,5.4-12,12-12h537.87c6.6,0,12,5.4,12,12v318.45
	C427.32,990.73,421.92,996.13,415.32,996.13z"/>
<g>
	<ellipse class="st5" cx="131.82" cy="808.67" rx="9.06" ry="50.69"/>
	<ellipse class="st5" cx="113.03" cy="808.67" rx="5.69" ry="44.01"/>
	<ellipse class="st5" cx="98.71" cy="808.67" rx="4.38" ry="36.55"/>
	<ellipse class="st5" cx="87.27" cy="808.67" rx="3.25" ry="30.35"/>
	<ellipse class="st5" cx="77.8" cy="808.67" rx="2.3" ry="21.37"/>
	<g>
		<path class="st5" d="M188.2,777.1c1.74-0.29,3.45-0.39,5.14-0.33c6.44,0.23,12.64,2.88,19.61,7.49c0.34,0.22,0.66,0.46,0.99,0.7
			c2.7,1.95,6,3.12,9.58,3.12c2.77,0,5.37-0.69,7.66-1.91c5.21-2.77,8.77-8.28,8.77-14.63c0-9.13-7.36-16.53-16.43-16.53
			c-3.56,0-6.85,1.15-9.53,3.08c-0.36,0.26-0.71,0.52-1.08,0.76c-12.85,8.31-29.38,8.31-42.23,0c-0.37-0.24-0.72-0.5-1.08-0.76
			c-2.69-1.94-5.98-3.08-9.53-3.08c-9.08,0-16.43,7.4-16.43,16.53c0,3.64,1.18,6.99,3.16,9.72c10.94,15.88,10.93,29.79,0,52.72
			c-1.45,3.05-3.16,6.08-3.16,9.73c0,9.13,7.36,16.53,16.43,16.53c9.08,0,16.44-7.4,16.44-16.53c0-3.64-1.59-6.75-3.17-9.73
			c-7.13-13.49-7.53-15.03-8.09-23.17c-0.41-6,4.38-11.14,10.4-11.13c13.24,0.03,24.52,7.94,33.08,18.75
			c3.82,4.49,6.85,7.27,12.08,7.27c7.57,0,13.71-6.18,13.71-13.79c0-3.95-1.66-7.68-4.3-10.27c-2.46-2.41-5.77-3.83-9.41-3.53
			c-1.9,0.16-3.48,0.45-5.18,1.03c-0.36,0.12-0.67,0.28-1.07,0.41c-8.49,2.85-16.9,3.24-24.4,0.89
			c-11.47-3.64-19.07-9.42-18.3-14.75C172.5,781.2,178.96,778.09,188.2,777.1z"/>
	</g>
</g>
<rect x="-169.54" y="1059.76" class="st5" width="627.33" height="427.32"/>
<path d="M415.32,1444.34h-537.87c-6.6,0-12-5.4-12-12v-318.45c0-6.6,5.4-12,12-12h537.87c6.6,0,12,5.4,12,12v318.45
	C427.32,1438.94,421.92,1444.34,415.32,1444.34z"/>
<rect x="-114.18" y="1346.56" style="fill:none;" width="324.96" height="31.99"/>
<text transform="matrix(1 0 0 1 -114.1815 1360.9634)" class="st5" style="font-family:'MonumentExtended-Regular'; font-size:18px; letter-spacing:1;">FERNANDO CABRERA</text>
<g>
	<path class="st5" d="M-106.26,1384.03c5.02,0,7.54,1.91,7.87,5.55h-3.29c-0.31-2.03-1.87-2.83-4.57-2.83
		c-3.29,0-4.68,1.17-4.68,3.75c0,2.59,1.4,3.78,4.68,3.78c2.68,0,4.27-0.81,4.57-2.86h3.29c-0.32,3.66-2.84,5.58-7.87,5.58
		c-5.55,0-7.92-2.3-7.92-6.5C-114.18,1386.32-111.8,1384.03-106.26,1384.03z"/>
</g>
<g>
	<path class="st5" d="M-49.98,1390.49c0-4.18,2.38-6.46,7.92-6.46c5.53,0,7.92,2.3,7.92,6.46c0,4.18-2.39,6.5-7.92,6.5
		C-47.6,1396.99-49.98,1394.69-49.98,1390.49z M-37.37,1390.49c0-2.56-1.3-3.75-4.68-3.75s-4.68,1.17-4.68,3.75
		c0,2.59,1.31,3.78,4.68,3.78S-37.37,1393.07-37.37,1390.49z"/>
</g>
<g>
	<path class="st5" d="M33.26,1396.99h-3.24v-8.64l-5.24,8.64h-2.34l-5.24-8.64v8.64h-3.24v-12.6h4.37l5.28,8.89l5.28-8.89h4.38
		V1396.99z"/>
</g>
<g>
	<path class="st5" d="M92.58,1389.02c0,2.81-1.96,4.61-4.83,4.61h-6.66v3.37h-3.24v-12.6h9.9
		C90.61,1384.39,92.58,1386.21,92.58,1389.02z M89.34,1389.02c0-1.91-1.51-1.91-2.48-1.91h-5.76v3.8h5.76
		C87.82,1390.91,89.34,1390.91,89.34,1389.02z"/>
</g>
<g>
	<path class="st5" d="M141.88,1390.49c0-4.18,2.38-6.46,7.92-6.46c5.53,0,7.92,2.3,7.92,6.46c0,4.18-2.39,6.5-7.92,6.5
		C144.26,1396.99,141.88,1394.69,141.88,1390.49z M154.49,1390.49c0-2.56-1.3-3.75-4.68-3.75s-4.68,1.17-4.68,3.75
		c0,2.59,1.31,3.78,4.68,3.78S154.49,1393.07,154.49,1390.49z"/>
</g>
<g>
	<path class="st5" d="M208.92,1393.09c0,1.13,1.17,1.57,4.61,1.57c3.33,0,3.87-0.22,3.87-1.04c0-0.81-0.5-0.86-4.23-1.1
		c-4.66-0.27-6.95-0.63-6.95-3.19c0-2.77,3.24-3.29,7.02-3.29c4,0,6.9,0.52,6.9,3.44h-3.1c0-0.88-1.12-1.1-3.98-1.1
		c-2.92,0-3.75,0.22-3.75,0.83c0,0.67,0.56,0.77,4.21,1.04c4.14,0.31,6.97,0.41,6.97,3.24c0,2.99-2.7,3.51-6.79,3.51
		c-4.09,0-7.87-0.52-7.87-3.91H208.92z"/>
</g>
<g>
	<path class="st5" d="M273.07,1386.96v2.56h10.08v2.34h-10.08v2.56h10.08v2.58h-13.32v-12.6h13.32v2.57H273.07z"/>
</g>
<g>
	<path class="st5" d="M345.81,1393.25l2.32,3.75h-3.82l-2.04-3.37h-5.22v3.37h-3.24v-12.6h9.9c2.86,0,4.83,1.82,4.83,4.63
		C348.55,1391.07,347.5,1392.58,345.81,1393.25z M337.06,1390.91h5.76c0.97,0,2.48,0,2.48-1.89c0-1.91-1.51-1.91-2.48-1.91h-5.76
		V1390.91z"/>
</g>
<g>
	<path class="st5" d="M405.08,1390.31l-0.78,2.61h2.31v1.7h-2.82l-0.71,2.38h-2.1l0.71-2.38h-3.45l-0.71,2.38h-2.1l0.71-2.38h-2.37
		v-1.7h2.88l0.78-2.61h-2.46v-1.7h2.96l0.61-2.02h2.1l-0.61,2.02h3.45l0.61-2.02h2.1l-0.61,2.02h2.22v1.7H405.08z M402.97,1390.31
		h-3.45l-0.78,2.61h3.45L402.97,1390.31z"/>
</g>
<g>
	<path d="M-1147.91,508.51c0,8.59-6.01,14.1-14.77,14.1h-20.39v10.3h-9.92v-38.57h30.3
		C-1153.91,494.35-1147.91,499.92-1147.91,508.51z M-1157.82,508.51c0-5.84-4.63-5.84-7.6-5.84h-17.63v11.62h17.63
		C-1162.45,514.3-1157.82,514.3-1157.82,508.51z"/>
	<path d="M-1103.68,521.46l7.11,11.46h-11.68l-6.23-10.3h-15.98v10.3h-9.92v-38.57h30.3c8.76,0,14.77,5.56,14.77,14.16
		C-1095.31,514.79-1098.5,519.42-1103.68,521.46z M-1130.46,514.3h17.63c2.97,0,7.6,0,7.6-5.79c0-5.84-4.63-5.84-7.6-5.84h-17.63
		V514.3z"/>
	<path d="M-1063.53,533.47c-16.97,0-24.24-6.45-24.24-19.89v-19.23h9.92v19.23c0,5.4,1.49,11.57,14.33,11.57
		c12.84,0,14.32-6.22,14.32-11.57v-19.23h9.92v19.23C-1039.29,526.97-1046.62,533.47-1063.53,533.47z"/>
	<path d="M-1021.29,502.23v7.82h30.85v7.16h-30.85v7.82h30.85v7.88h-40.77v-38.57h40.77v7.88H-1021.29z"/>
	<path d="M-935.07,521.68c0,6.5-3.8,11.24-12.56,11.24h-35.26v-38.57h33.94c8.76,0,11.46,4.46,11.46,10.14c0,2.7-1.1,5.35-3.03,7.49
		C-937.22,514.02-935.07,517.22-935.07,521.68z M-972.98,509.5h20.44h0.06c2.64,0,5.07,0,5.07-4.02c0-3.97-2.42-3.97-5.12-3.97
		h-20.44V509.5z M-944.99,521.18c0-4.08-2.42-4.08-5.07-4.08h-22.92v8.16h22.92C-947.42,525.26-944.99,525.26-944.99,521.18z"/>
	<path d="M-893.6,524.71h-23.08l-4.13,8.21h-10.91l19.89-38.57h13.39l19.95,38.57h-10.96L-893.6,524.71z M-897.29,517.33
		l-7.82-15.65l-7.88,15.65H-897.29z"/>
	<path d="M-865.8,519.64c0,4.08,3.31,5.95,15.87,5.95c10.41,0,13.55-1.16,13.55-4.19c0-3.2-2.2-3.75-14.71-4.35
		c-16.8-0.77-23.47-3.42-23.47-12.07c0-8.48,8.65-11.19,23.09-11.19c14.55,0,23.36,3.64,23.36,13.17h-9.92
		c0-4.24-4.24-5.29-14.55-5.29c-9.75,0-12.07,0.94-12.07,3.8c0,2.98,2.31,3.53,13.55,4.19c15.21,0.83,24.63,1.65,24.63,11.41
		c0,10.3-9.75,12.4-24.02,12.4c-15.81,0-25.23-2.7-25.23-13.83H-865.8z"/>
	<path d="M-742.35,502.67h-18.73v30.25H-771v-30.25h-18.73v-8.32h47.38V502.67z"/>
	<path d="M-708.92,524.71H-732l-4.13,8.21h-10.91l19.89-38.57h13.39l19.95,38.57h-10.96L-708.92,524.71z M-712.61,517.33
		l-7.82-15.65l-7.88,15.65H-712.61z"/>
	<path d="M-650.81,521.46l7.11,11.46h-11.68l-6.23-10.3h-15.98v10.3h-9.92v-38.57h30.3c8.76,0,14.77,5.56,14.77,14.16
		C-642.43,514.79-645.63,519.42-650.81,521.46z M-677.59,514.3h17.63c2.97,0,7.6,0,7.6-5.79c0-5.84-4.63-5.84-7.6-5.84h-17.63V514.3
		z"/>
	<path d="M-589.83,513.58c0,13.39-7.33,19.89-23.14,19.89c-15.87,0-23.14-6.45-23.14-19.89h9.92c0,5.4,1.49,11.57,13.22,11.57
		s13.22-6.22,13.22-11.57v-10.91h-18.29v-8.32h28.21V513.58z"/>
	<path d="M-571.83,502.23v7.82h30.85v7.16h-30.85v7.82h30.85v7.88h-40.77v-38.57h40.77v7.88H-571.83z"/>
	<path d="M-486.94,502.67h-18.73v30.25h-9.92v-30.25h-18.73v-8.32h47.38V502.67z"/>
	<path d="M-453.51,524.71h-23.08l-4.13,8.21h-10.91l19.89-38.57h13.39l19.95,38.57h-10.96L-453.51,524.71z M-457.2,517.33
		l-7.82-15.65l-7.88,15.65H-457.2z"/>
	<path d="M-425.7,519.64c0,4.08,3.31,5.95,15.87,5.95c10.41,0,13.55-1.16,13.55-4.19c0-3.2-2.2-3.75-14.71-4.35
		c-16.8-0.77-23.47-3.42-23.47-12.07c0-8.48,8.65-11.19,23.09-11.19c14.55,0,23.36,3.64,23.36,13.17h-9.92
		c0-4.24-4.24-5.29-14.55-5.29c-9.75,0-12.07,0.94-12.07,3.8c0,2.98,2.31,3.53,13.55,4.19c15.21,0.83,24.63,1.65,24.63,11.41
		c0,10.3-9.75,12.4-24.02,12.4c-15.81,0-25.23-2.7-25.23-13.83H-425.7z"/>
	<path d="M-302.37,513.64c0,13.11-8.76,19.28-18.73,19.28h-27.99v-38.57h27.99C-311.13,494.35-302.37,500.52-302.37,513.64z
		 M-312.28,513.64c0-9.37-5.07-10.96-12.56-10.96h-14.33v21.93h14.33C-317.35,524.6-312.28,523-312.28,513.64z"/>
	<path d="M-284.92,502.23v7.82h30.85v7.16h-30.85v7.82h30.85v7.88h-40.77v-38.57h40.77v7.88H-284.92z"/>
	<path d="M-164.12,494.35l-19.83,38.57h-13.55l-19.83-38.57h11.13l15.48,31.24l15.48-31.24H-164.12z"/>
	<path d="M-147.88,532.92h-9.92v-38.57h9.92V532.92z"/>
	<path d="M-130.75,519.64c0,4.08,3.31,5.95,15.87,5.95c10.41,0,13.55-1.16,13.55-4.19c0-3.2-2.2-3.75-14.71-4.35
		c-16.8-0.77-23.47-3.42-23.47-12.07c0-8.48,8.65-11.19,23.09-11.19c14.55,0,23.36,3.64,23.36,13.17h-9.92
		c0-4.24-4.24-5.29-14.55-5.29c-9.75,0-12.07,0.94-12.07,3.8c0,2.98,2.31,3.53,13.55,4.19c15.21,0.83,24.63,1.65,24.63,11.41
		c0,10.3-9.75,12.4-24.02,12.4c-15.81,0-25.23-2.7-25.23-13.83H-130.75z"/>
	<path d="M-73.96,532.92h-9.92v-38.57h9.92V532.92z"/>
	<path d="M-19.37,502.67H-38.1v30.25h-9.92v-30.25h-18.73v-8.32h47.38V502.67z"/>
	<path d="M14.07,524.71H-9.02l-4.13,8.21h-10.91l19.89-38.57H9.22l19.95,38.57H18.2L14.07,524.71z M10.38,517.33l-7.82-15.65
		l-7.88,15.65H10.38z"/>
</g>
</svg>
